<svg width="230" height="24" viewBox="0 0 230 24" fill="none" xmlns="http://www.w3.org/2000/svg">
<g clip-path="url(#clip0_2_15)">
<path d="M13.667 14.88H3.16299C2.36464 14.88 1.68035 14.6057 1.1101 14.0571C0.562659 13.4857 0.28894 12.8 0.28894 12C0.28894 11.2 0.562659 10.5257 1.1101 9.97714C1.68035 9.40572 2.36464 9.12 3.16299 9.12H13.667C14.4653 9.12 15.1382 9.40572 15.6856 9.97714C16.2559 10.5257 16.541 11.2 16.541 12C16.541 12.8 16.2559 13.4857 15.6856 14.0571C15.1382 14.6057 14.4653 14.88 13.667 14.88ZM21.6732 24H3.16299C2.36464 24 1.68035 23.7257 1.1101 23.1771C0.562659 22.6057 0.28894 21.9314 0.28894 21.1543C0.28894 20.3543 0.562659 19.68 1.1101 19.1314C1.68035 18.5829 2.36464 18.3086 3.16299 18.3086H21.6732C22.4716 18.3086 23.1445 18.5829 23.6919 19.1314C24.2622 19.68 24.5473 20.3543 24.5473 21.1543C24.5473 21.9314 24.2622 22.6057 23.6919 23.1771C23.1445 23.7257 22.4716 24 21.6732 24ZM3.16299 5.69143C2.77522 5.69143 2.39886 5.62286 2.0339 5.48572C1.69175 5.32572 1.38382 5.12 1.1101 4.86857C0.859188 4.61714 0.653899 4.32 0.49423 3.97714C0.35737 3.63429 0.28894 3.26857 0.28894 2.88C0.28894 2.35428 0.414395 1.87428 0.665304 1.44C0.916213 0.982859 1.25836 0.628573 1.69175 0.377144C2.14795 0.125715 2.63836 0 3.16299 0H21.6732C22.4716 0 23.1445 0.285715 23.6919 0.857145C24.2622 1.40572 24.5473 2.08 24.5473 2.88C24.5473 3.65714 24.2622 4.32 23.6919 4.86857C23.1445 5.41714 22.4716 5.69143 21.6732 5.69143H3.16299ZM46.9888 1.54286L52.429 10.4571C52.4746 10.5486 52.4974 10.5943 52.4974 10.5943L52.5316 10.6286V10.6629L52.5658 10.6971V10.7314L52.6001 10.8L52.6343 10.8343C52.7483 11.0857 52.8282 11.4057 52.8738 11.7943V12.2057C52.8282 12.5943 52.7483 12.9143 52.6343 13.1657L52.6001 13.2L52.5658 13.2686V13.3029L52.5316 13.3371V13.3714L52.4974 13.4057C52.4974 13.4057 52.4746 13.4514 52.429 13.5429L46.9888 22.4571C46.7379 22.9143 46.3844 23.2914 45.9282 23.5886C45.472 23.8629 44.9701 24 44.4227 24H39.1194C38.3211 24 37.6367 23.7257 37.0665 23.1771C36.519 22.6057 36.2453 21.9314 36.2453 21.1543C36.2453 20.3543 36.519 19.68 37.0665 19.1314C37.6367 18.5829 38.3211 18.3086 39.1194 18.3086H42.8488L46.7151 12L42.8488 5.69143H39.1194C38.3211 5.69143 37.6367 5.41714 37.0665 4.86857C36.519 4.32 36.2453 3.64572 36.2453 2.84572C36.2453 2.45714 36.3137 2.09143 36.4506 1.74857C36.6103 1.40572 36.8156 1.10857 37.0665 0.857145C37.3402 0.582859 37.6481 0.377143 37.9903 0.240001C38.3553 0.0800005 38.7316 0 39.1194 0H44.4227C44.9701 0 45.472 0.148572 45.9282 0.445716C46.3844 0.720002 46.7379 1.08572 46.9888 1.54286ZM28.6496 2.88C28.6496 2.35428 28.7751 1.87428 29.026 1.44C29.2769 0.982859 29.619 0.628573 30.0524 0.377144C30.5086 0.125715 30.999 0 31.5237 0C32.2992 0 32.9607 0.285715 33.5081 0.857145C34.0784 1.40572 34.3635 2.08 34.3635 2.88V21.12C34.3635 21.92 34.0784 22.6057 33.5081 23.1771C32.9607 23.7257 32.2878 24 31.4894 24C30.7139 24 30.041 23.7257 29.4708 23.1771C28.9233 22.6057 28.6496 21.92 28.6496 21.12V2.88ZM75.3279 21.12V2.88C75.3279 2.08 75.6016 1.40572 76.149 0.857145C76.6965 0.285715 77.3579 0 78.1335 0C78.9318 0 79.6047 0.285715 80.1522 0.857145C80.7224 1.40572 81.0075 2.08 81.0075 2.88V21.12C81.0075 21.92 80.7224 22.6057 80.1522 23.1771C79.6047 23.7257 78.9318 24 78.1335 24C77.3579 24 76.6965 23.7257 76.149 23.1771C75.6016 22.6057 75.3279 21.92 75.3279 21.12ZM70.1956 24H67.5953C66.797 24 66.1127 23.7257 65.5424 23.1771C64.995 22.6057 64.7213 21.9314 64.7213 21.1543C64.7213 20.3543 64.995 19.68 65.5424 19.1314C66.1127 18.5829 66.797 18.3086 67.5953 18.3086H70.1956C70.994 18.3086 71.6669 18.5829 72.2143 19.1314C72.7846 19.68 73.0697 20.3543 73.0697 21.1543C73.0697 21.9314 72.7846 22.6057 72.2143 23.1771C71.6669 23.7257 70.994 24 70.1956 24ZM56.7834 21.12V2.88C56.7834 2.08 57.0571 1.40572 57.6046 0.857145C58.1748 0.285715 58.8477 0 59.6232 0C60.4216 0 61.0945 0.285715 61.6419 0.857145C62.2122 1.40572 62.4973 2.08 62.4973 2.88V21.12C62.4973 21.92 62.2122 22.6057 61.6419 23.1771C61.0945 23.7257 60.4216 24 59.6232 24C58.8477 24 58.1748 23.7257 57.6046 23.1771C57.0571 22.6057 56.7834 21.92 56.7834 21.12Z" fill="#0055FF"/>
<path d="M105.894 5.69143H90.1889C89.6643 5.69143 89.1853 5.56572 88.7519 5.31429C88.3185 5.06286 87.9763 4.72 87.7254 4.28572C87.4745 3.85143 87.3491 3.38286 87.3491 2.88C87.3491 2.35428 87.4745 1.87428 87.7254 1.44C87.9763 0.982859 88.3185 0.628573 88.7519 0.377144C89.1853 0.125715 89.6643 0 90.1889 0H108.699C109.497 0 110.17 0.285715 110.718 0.857145C111.288 1.40572 111.573 2.08 111.573 2.88V8.09143C111.573 8.89143 111.288 9.57714 110.718 10.1486C110.17 10.6971 109.497 10.9714 108.699 10.9714C107.924 10.9714 107.262 10.6971 106.715 10.1486C106.167 9.57714 105.894 8.89143 105.894 8.09143V5.69143ZM90.1889 9.12H103.122C103.92 9.12 104.593 9.40572 105.141 9.97714C105.711 10.5257 105.996 11.2 105.996 12C105.996 12.8 105.711 13.4857 105.141 14.0571C104.593 14.6057 103.92 14.88 103.122 14.88H93.0287V21.12C93.0287 21.92 92.7436 22.6057 92.1734 23.1771C91.6259 23.7257 90.9644 24 90.1889 24C89.4134 24 88.7405 23.7257 88.1702 23.1771C87.6228 22.6057 87.3491 21.92 87.3491 21.12V12C87.3491 11.2 87.6228 10.5257 88.1702 9.97714C88.7405 9.40572 89.4134 9.12 90.1889 9.12ZM115.824 2.91429V2.88C115.824 1.78286 116.292 0.948573 117.227 0.377144L117.432 0.274286H117.501L117.638 0.205716L117.672 0.171428H117.74L117.877 0.102858H117.946L118.014 0.0685727H118.117L118.185 0.0342853H118.39L118.459 0H137.174C137.973 0 138.646 0.285715 139.193 0.857145C139.763 1.40572 140.048 2.08 140.048 2.88V21.12C140.048 21.92 139.763 22.6057 139.193 23.1771C138.646 23.7257 137.973 24 137.174 24H118.459L118.39 23.9657H118.185L118.117 23.9314H118.014L117.946 23.8971H117.877L117.74 23.8286H117.672L117.638 23.7943L117.501 23.7257H117.432L117.227 23.6229C116.292 23.0743 115.824 22.2514 115.824 21.1543V2.91429ZM121.504 5.69143V18.3086H134.334V5.69143H121.504ZM157.714 15.6686L155.079 11.1429C154.692 10.4571 154.6 9.73714 154.806 8.98286C155.011 8.22857 155.444 7.65714 156.106 7.26857C156.79 6.88 157.509 6.78857 158.261 6.99429C159.014 7.2 159.584 7.64572 159.972 8.33143L162.607 12.8571C162.994 13.5429 163.086 14.2629 162.88 15.0171C162.675 15.7714 162.242 16.3429 161.58 16.7314C160.873 17.12 160.143 17.2114 159.39 17.0057C158.66 16.8 158.102 16.3543 157.714 15.6686ZM146.731 21.12V2.88C146.731 2.08 147.005 1.40572 147.552 0.857145C148.122 0.285715 148.807 0 149.605 0C150.107 0 150.574 0.125715 151.008 0.377144C151.441 0.628573 151.783 0.982859 152.034 1.44C152.285 1.87428 152.411 2.35428 152.411 2.88V21.12C152.411 21.92 152.137 22.6057 151.589 23.1771C151.042 23.7257 150.38 24 149.605 24C148.807 24 148.122 23.7257 147.552 23.1771C147.005 22.6057 146.731 21.92 146.731 21.12ZM165.241 21.12V2.88C165.241 2.08 165.515 1.40572 166.062 0.857145C166.633 0.285715 167.305 0 168.081 0C168.879 0 169.552 0.285715 170.1 0.857145C170.67 1.40572 170.955 2.08 170.955 2.88V21.12C170.955 21.92 170.67 22.6057 170.1 23.1771C169.552 23.7257 168.879 24 168.081 24C167.305 24 166.633 23.7257 166.062 23.1771C165.515 22.6057 165.241 21.92 165.241 21.12ZM195.944 1.54286L201.384 10.4571C201.429 10.5486 201.452 10.5943 201.452 10.5943L201.486 10.6286V10.6629L201.521 10.6971V10.7314L201.555 10.8L201.589 10.8343C201.703 11.0857 201.783 11.4057 201.829 11.7943V12.2057C201.783 12.5943 201.703 12.9143 201.589 13.1657L201.555 13.2L201.521 13.2686V13.3029L201.486 13.3371V13.3714L201.452 13.4057C201.452 13.4057 201.429 13.4514 201.384 13.5429L195.944 22.4571C195.693 22.9143 195.339 23.2914 194.883 23.5886C194.427 23.8629 193.925 24 193.378 24H188.074C187.276 24 186.592 23.7257 186.021 23.1771C185.474 22.6057 185.2 21.9314 185.2 21.1543C185.2 20.3543 185.474 19.68 186.021 19.1314C186.592 18.5829 187.276 18.3086 188.074 18.3086H191.804L195.67 12L191.804 5.69143H188.074C187.276 5.69143 186.592 5.41714 186.021 4.86857C185.474 4.32 185.2 3.64572 185.2 2.84572C185.2 2.45714 185.269 2.09143 185.405 1.74857C185.565 1.40572 185.77 1.10857 186.021 0.857145C186.295 0.582859 186.603 0.377143 186.945 0.240001C187.31 0.0800005 187.686 0 188.074 0H193.378C193.925 0 194.427 0.148572 194.883 0.445716C195.339 0.720002 195.693 1.08572 195.944 1.54286ZM177.604 2.88C177.604 2.35428 177.73 1.87428 177.981 1.44C178.232 0.982859 178.574 0.628573 179.007 0.377144C179.463 0.125715 179.954 0 180.479 0C181.254 0 181.916 0.285715 182.463 0.857145C183.033 1.40572 183.318 2.08 183.318 2.88V21.12C183.318 21.92 183.033 22.6057 182.463 23.1771C181.916 23.7257 181.243 24 180.444 24C179.669 24 178.996 23.7257 178.426 23.1771C177.878 22.6057 177.604 21.92 177.604 21.12V2.88ZM205.738 2.91429V2.88C205.738 1.78286 206.206 0.948573 207.141 0.377144L207.346 0.274286H207.415L207.552 0.205716L207.586 0.171428H207.654L207.791 0.102858H207.86L207.928 0.0685727H208.031L208.099 0.0342853H208.304L208.373 0H227.088C227.887 0 228.56 0.285715 229.107 0.857145C229.677 1.40572 229.962 2.08 229.962 2.88V21.12C229.962 21.92 229.677 22.6057 229.107 23.1771C228.56 23.7257 227.887 24 227.088 24H208.373L208.304 23.9657H208.099L208.031 23.9314H207.928L207.86 23.8971H207.791L207.654 23.8286H207.586L207.552 23.7943L207.415 23.7257H207.346L207.141 23.6229C206.206 23.0743 205.738 22.2514 205.738 21.1543V2.91429ZM211.418 5.69143V18.3086H224.248V5.69143H211.418Z" fill="#24242E"/>
</g>
<defs>
<clipPath id="clip0_2_15">
<rect width="230" height="24" fill="white"/>
</clipPath>
</defs>
</svg>
