<svg width="838" height="378" viewBox="0 0 838 378" fill="none" xmlns="http://www.w3.org/2000/svg">
<path d="M211.14 234.36H45.36C32.76 234.36 21.96 230.04 12.96 221.4C4.32 212.4 0 201.6 0 189C0 176.4 4.32 165.78 12.96 157.14C21.96 148.14 32.76 143.64 45.36 143.64H211.14C223.74 143.64 234.36 148.14 243 157.14C252 165.78 256.5 176.4 256.5 189C256.5 201.6 252 212.4 243 221.4C234.36 230.04 223.74 234.36 211.14 234.36ZM337.5 378H45.36C32.76 378 21.96 373.68 12.96 365.04C4.32 356.04 0 345.42 0 333.18C0 320.58 4.32 309.96 12.96 301.32C21.96 292.68 32.76 288.36 45.36 288.36H337.5C350.1 288.36 360.72 292.68 369.36 301.32C378.36 309.96 382.86 320.58 382.86 333.18C382.86 345.42 378.36 356.04 369.36 365.04C360.72 373.68 350.1 378 337.5 378ZM45.36 89.64C39.24 89.64 33.3 88.56 27.54 86.4C22.14 83.88 17.28 80.64 12.96 76.68C9 72.72 5.76 68.04 3.24 62.64C1.08 57.24 0 51.48 0 45.36C0 37.08 1.98 29.52 5.94 22.68C9.9 15.48 15.3 9.90001 22.14 5.94002C29.34 1.98001 37.08 0 45.36 0H337.5C350.1 0 360.72 4.50001 369.36 13.5C378.36 22.14 382.86 32.76 382.86 45.36C382.86 57.6 378.36 68.04 369.36 76.68C360.72 85.32 350.1 89.64 337.5 89.64H45.36Z" fill="#0055FF"/>
<path d="M748.081 89.64H500.221C491.941 89.64 484.381 87.66 477.541 83.7C470.701 79.74 465.301 74.34 461.341 67.5C457.381 60.66 455.401 53.28 455.401 45.36C455.401 37.08 457.381 29.52 461.341 22.68C465.301 15.48 470.701 9.90001 477.541 5.94002C484.381 1.98001 491.941 0 500.221 0H792.361C804.961 0 815.581 4.50001 824.221 13.5C833.221 22.14 837.721 32.76 837.721 45.36V127.44C837.721 140.04 833.221 150.84 824.221 159.84C815.581 168.48 804.961 172.8 792.361 172.8C780.121 172.8 769.681 168.48 761.041 159.84C752.401 150.84 748.081 140.04 748.081 127.44V89.64ZM500.221 143.64H704.341C716.941 143.64 727.561 148.14 736.201 157.14C745.201 165.78 749.701 176.4 749.701 189C749.701 201.6 745.201 212.4 736.201 221.4C727.561 230.04 716.941 234.36 704.341 234.36H545.041V332.64C545.041 345.24 540.541 356.04 531.541 365.04C522.901 373.68 512.461 378 500.221 378C487.981 378 477.361 373.68 468.361 365.04C459.721 356.04 455.401 345.24 455.401 332.64V189C455.401 176.4 459.721 165.78 468.361 157.14C477.361 148.14 487.981 143.64 500.221 143.64Z" fill="#24242E"/>
</svg>
